<?xml version="1.0" encoding="UTF-8"?>
<!-- Created with Inkscape (http://www.inkscape.org/) -->
<svg width="500" height="500" version="1.1" viewBox="0 0 132.29 132.29" xmlns="http://www.w3.org/2000/svg">
 <path d="m76.635 5.0148e-4c4.569 4.5096 10.061 20.698 11.131 28.78-3.1759 2.3515-6.1661 4.7749-9.0475 7.1707-8.3348 7.2957-15.182 14.009-20.59 23.65-5.1007-8.6178-13.065-16.488-19.19-22.492-1.6038-1.5724-7.4613-6.0145-10.409-8.336 1.2738-5.1153 7.8973-28.899 11.13-28.772 0.53975 0.02116 0.66515 1.4108 1.5906 3.8175 3.2921 8.5617 7.2313 19.433 16.456 19.478 9.4718 0.04624 15.081-11.607 17.047-20.14 0.54523-2.3668 1.0066-3.1555 1.8823-3.1555zm12.603 35.211c0.16648 0.02608 0.32321 0.49945 2.393 6.4129 0.75801 2.1657 1.7123 4.8525 2.6092 7.3831 0.41582 1.0599 0.7529 2.0314 1.035 2.9294 0.03594 0.10082 0.09744 0.278 0.13172 0.37394 2.4716 6.9208 2.5583 6.6783 2.1084 7.8366-1.5799 4.0681-4.9758 7.1617-8.217 7.8872 0.3636-2.8712 0.33646-6.3583-1.624-8.4538-5.1952-3.1411-14.041 1.2265-17.755 3.737-4.4096 2.9803-7.6528 7.8576-10.579 11.483 1.2295-8.4079 4.9624-16.631 9.9806-22.973 4.0944-5.0908 10.2-10.475 16.43-14.487 1.1642-0.74969 2.3654-1.5353 2.6688-1.7455 0.30335-0.21019 0.63723-0.38139 0.74174-0.38139 0.02976 0 0.05324-0.0062 0.07702-0.0026zm-62.174 0.02c0.10354-0.0156 0.26205 0.03026 0.40504 0.12546 0.19054 0.12696 1.1947 0.76031 2.2302 1.4076 2.7262 1.704 7.614 5.4016 10.356 7.8341 8.7149 7.7316 14.481 17.26 16.485 27.244 0.29263 1.4581 0.26367 2.0871 0.40876 2.9729-2.2598-2.9836-6.9694-6.5908-9.653-8.427s-12.192-7.6138-16.048-3.7059c-5.9309 6.0109 2.7714 19.536 6.0335 24.603 2.3239 3.6094 4.2871 5.5751 10.296 8.8546-0.04274 0.54454-0.48731 3.278-1.1518 5.0985-1.7602 4.8224-4.922 7.8739-9.0202 8.5795-13.916 2.396-20.434-11.981-18.572-24.126 0.86446-4.7651 2.5467-10.127 4.8332-15.539 0.66318-1.5697 1.1345-2.9132 1.0486-2.9853-0.0859-0.07212-0.75076-0.54805-1.4785-1.0572-2.48-1.7351-3.9187-3.6674-4.4691-6.0041-0.28551-1.2121-0.88364 0.70881 4.8244-15.483 1.7865-5.0678 3.3128-9.2781 3.3907-9.3559 0.0194-0.0194 0.0475-0.03084 0.082-0.03602zm86.707 38.601c-0.0752 0.20026-0.8188 1.1917-1.9208 2.3406-6.7162 8.329-10.484 16.261-13.682 26.107-8.684 21.121-19.107 29.559-40.365 30.008-15.454 0.1862-25.752-10.346-33.315-21.678 11.846 5.8759 20.552 4.0404 26.232-4.6525 11.395-17.441 28.969-29.805 49.158-32.611 2.6994-0.37525 12.207-0.76009 13.893 0.48569z"/>
</svg>
